<svg width="712" height="712" viewBox="0 0 712 712" fill="none" xmlns="http://www.w3.org/2000/svg">
<path fill-rule="evenodd" clip-rule="evenodd" d="M132 159C115.431 159 102 172.431 102 189V523C102 539.569 115.431 553 132 553H580C596.569 553 610 539.569 610 523V189C610 172.431 596.569 159 580 159H132ZM132 189L580 189V523H132V189ZM318.055 222.745C298.06 211.65 273.5 226.11 273.5 248.977V375.023C273.5 397.89 298.06 412.35 318.055 401.255L431.639 338.232C452.232 326.806 452.232 297.194 431.639 285.768L318.055 222.745ZM303.5 248.977L417.083 312L303.5 375.023V248.977ZM202.5 449C194.216 449 187.5 455.716 187.5 464C187.5 472.284 194.216 479 202.5 479H278.073C283.613 487.432 293.156 493 304 493C314.844 493 324.387 487.432 329.927 479H509.5C517.784 479 524.5 472.284 524.5 464C524.5 455.716 517.784 449 509.5 449H332.151C327.235 438.373 316.478 431 304 431C291.522 431 280.765 438.373 275.849 449H202.5Z" fill="#D9D9D9"/>
<path fill-rule="evenodd" clip-rule="evenodd" d="M132 159C115.431 159 102 172.431 102 189V523C102 539.569 115.431 553 132 553H580C596.569 553 610 539.569 610 523V189C610 172.431 596.569 159 580 159H132ZM132 189L580 189V523H132V189ZM318.055 222.745C298.06 211.65 273.5 226.11 273.5 248.977V375.023C273.5 397.89 298.06 412.35 318.055 401.255L431.639 338.232C452.232 326.806 452.232 297.194 431.639 285.768L318.055 222.745ZM303.5 248.977L417.083 312L303.5 375.023V248.977ZM202.5 449C194.216 449 187.5 455.716 187.5 464C187.5 472.284 194.216 479 202.5 479H278.073C283.613 487.432 293.156 493 304 493C314.844 493 324.387 487.432 329.927 479H509.5C517.784 479 524.5 472.284 524.5 464C524.5 455.716 517.784 449 509.5 449H332.151C327.235 438.373 316.478 431 304 431C291.522 431 280.765 438.373 275.849 449H202.5Z" fill="url(#paint0_linear_38_86)"/>
<defs>
<linearGradient id="paint0_linear_38_86" x1="171.273" y1="537.24" x2="641.661" y2="294.219" gradientUnits="userSpaceOnUse">
<stop stop-color="#56CCF2"/>
<stop offset="1" stop-color="#2F80ED"/>
</linearGradient>
</defs>
</svg>
