<svg width="512" height="512" viewBox="0 0 512 512" fill="none" xmlns="http://www.w3.org/2000/svg">
<path fill-rule="evenodd" clip-rule="evenodd" d="M32 59C15.4315 59 2 72.4315 2 89V423C2 439.569 15.4315 453 32 453H480C496.569 453 510 439.569 510 423V89C510 72.4314 496.569 59 480 59H32ZM32 89L480 89V423H32V89ZM218.055 122.745C198.06 111.65 173.5 126.11 173.5 148.977V275.023C173.5 297.89 198.06 312.35 218.055 301.255L331.639 238.232C352.232 226.806 352.232 197.194 331.639 185.768L218.055 122.745ZM203.5 148.977L317.083 212L203.5 275.023V148.977ZM102.5 349C94.2157 349 87.5 355.716 87.5 364C87.5 372.284 94.2157 379 102.5 379H178.073C183.613 387.432 193.156 393 204 393C214.844 393 224.387 387.432 229.927 379H409.5C417.784 379 424.5 372.284 424.5 364C424.5 355.716 417.784 349 409.5 349H232.151C227.235 338.373 216.478 331 204 331C191.522 331 180.765 338.373 175.849 349H102.5Z" fill="#D9D9D9"/>
<path fill-rule="evenodd" clip-rule="evenodd" d="M32 59C15.4315 59 2 72.4315 2 89V423C2 439.569 15.4315 453 32 453H480C496.569 453 510 439.569 510 423V89C510 72.4314 496.569 59 480 59H32ZM32 89L480 89V423H32V89ZM218.055 122.745C198.06 111.65 173.5 126.11 173.5 148.977V275.023C173.5 297.89 198.06 312.35 218.055 301.255L331.639 238.232C352.232 226.806 352.232 197.194 331.639 185.768L218.055 122.745ZM203.5 148.977L317.083 212L203.5 275.023V148.977ZM102.5 349C94.2157 349 87.5 355.716 87.5 364C87.5 372.284 94.2157 379 102.5 379H178.073C183.613 387.432 193.156 393 204 393C214.844 393 224.387 387.432 229.927 379H409.5C417.784 379 424.5 372.284 424.5 364C424.5 355.716 417.784 349 409.5 349H232.151C227.235 338.373 216.478 331 204 331C191.522 331 180.765 338.373 175.849 349H102.5Z" fill="url(#paint0_linear_38_86)"/>
<defs>
<linearGradient id="paint0_linear_38_86" x1="71.2727" y1="437.24" x2="541.661" y2="194.219" gradientUnits="userSpaceOnUse">
<stop stop-color="#56CCF2"/>
<stop offset="1" stop-color="#2F80ED"/>
</linearGradient>
</defs>
</svg>
