<svg width="512" height="512" viewBox="0 0 512 512" fill="none" xmlns="http://www.w3.org/2000/svg">
<path fill-rule="evenodd" clip-rule="evenodd" d="M1 55C1 38.4315 14.4315 25 31 25H481C497.569 25 511 38.4315 511 55V95C511 111.234 498.106 124.456 482 124.984V364C482 380.569 468.569 394 452 394H270V421.452C285.75 427.174 297 442.273 297 460C297 482.644 278.644 501 256 501C233.356 501 215 482.644 215 460C215 443.033 225.306 428.473 240 422.239V394H60C43.4315 394 30 380.569 30 364V124.984C13.8944 124.456 1 111.234 1 95V55ZM60 125V364H256H452V125H60ZM467 95H45H31V55H481V95H467ZM289 197C289 188.716 295.716 182 304 182H356C364.284 182 371 188.716 371 197V244C371 252.284 364.284 259 356 259C347.716 259 341 252.284 341 244V239.04L297.664 292.037C287.942 303.926 270.811 306.553 257.974 298.123L196.473 257.74L155.607 298.607C149.749 304.464 140.251 304.464 134.393 298.607C128.536 292.749 128.536 283.251 134.393 277.393L175.26 236.527C185.316 226.471 201.051 224.857 212.939 232.663L274.44 273.046L324.358 212H304C295.716 212 289 205.284 289 197ZM267 460C267 466.075 262.075 471 256 471C249.925 471 245 466.075 245 460C245 453.925 249.925 449 256 449C262.075 449 267 453.925 267 460Z" fill="black"/>
<path fill-rule="evenodd" clip-rule="evenodd" d="M1 55C1 38.4315 14.4315 25 31 25H481C497.569 25 511 38.4315 511 55V95C511 111.234 498.106 124.456 482 124.984V364C482 380.569 468.569 394 452 394H270V421.452C285.75 427.174 297 442.273 297 460C297 482.644 278.644 501 256 501C233.356 501 215 482.644 215 460C215 443.033 225.306 428.473 240 422.239V394H60C43.4315 394 30 380.569 30 364V124.984C13.8944 124.456 1 111.234 1 95V55ZM60 125V364H256H452V125H60ZM467 95H45H31V55H481V95H467ZM289 197C289 188.716 295.716 182 304 182H356C364.284 182 371 188.716 371 197V244C371 252.284 364.284 259 356 259C347.716 259 341 252.284 341 244V239.04L297.664 292.037C287.942 303.926 270.811 306.553 257.974 298.123L196.473 257.74L155.607 298.607C149.749 304.464 140.251 304.464 134.393 298.607C128.536 292.749 128.536 283.251 134.393 277.393L175.26 236.527C185.316 226.471 201.051 224.857 212.939 232.663L274.44 273.046L324.358 212H304C295.716 212 289 205.284 289 197ZM267 460C267 466.075 262.075 471 256 471C249.925 471 245 466.075 245 460C245 453.925 249.925 449 256 449C262.075 449 267 453.925 267 460Z" fill="url(#paint0_linear_38_57)"/>
<defs>
<linearGradient id="paint0_linear_38_57" x1="70.5455" y1="481.96" x2="575.721" y2="265.077" gradientUnits="userSpaceOnUse">
<stop stop-color="#56CCF2"/>
<stop offset="1" stop-color="#2F80ED"/>
</linearGradient>
</defs>
</svg>
