<svg width="712" height="712" viewBox="0 0 712 712" fill="none" xmlns="http://www.w3.org/2000/svg">
<path fill-rule="evenodd" clip-rule="evenodd" d="M101 148C101 131.431 114.431 118 131 118H581C597.569 118 611 131.431 611 148V188C611 204.234 598.106 217.456 582 217.984V457C582 473.569 568.569 487 552 487H370V514.452C385.75 520.174 397 535.273 397 553C397 575.644 378.644 594 356 594C333.356 594 315 575.644 315 553C315 536.033 325.306 521.473 340 515.239V487H160C143.431 487 130 473.569 130 457V217.984C113.894 217.456 101 204.234 101 188V148ZM160 218V457H356H552V218H160ZM567 188H145H131V148H581V188H567ZM389 290C389 281.716 395.716 275 404 275H456C464.284 275 471 281.716 471 290V337C471 345.284 464.284 352 456 352C447.716 352 441 345.284 441 337V332.04L397.664 385.037C387.942 396.926 370.811 399.553 357.974 391.123L296.473 350.74L255.607 391.607C249.749 397.464 240.251 397.464 234.393 391.607C228.536 385.749 228.536 376.251 234.393 370.393L275.26 329.527C285.316 319.471 301.051 317.857 312.939 325.663L374.44 366.046L424.358 305H404C395.716 305 389 298.284 389 290ZM367 553C367 559.075 362.075 564 356 564C349.925 564 345 559.075 345 553C345 546.925 349.925 542 356 542C362.075 542 367 546.925 367 553Z" fill="black"/>
<path fill-rule="evenodd" clip-rule="evenodd" d="M101 148C101 131.431 114.431 118 131 118H581C597.569 118 611 131.431 611 148V188C611 204.234 598.106 217.456 582 217.984V457C582 473.569 568.569 487 552 487H370V514.452C385.75 520.174 397 535.273 397 553C397 575.644 378.644 594 356 594C333.356 594 315 575.644 315 553C315 536.033 325.306 521.473 340 515.239V487H160C143.431 487 130 473.569 130 457V217.984C113.894 217.456 101 204.234 101 188V148ZM160 218V457H356H552V218H160ZM567 188H145H131V148H581V188H567ZM389 290C389 281.716 395.716 275 404 275H456C464.284 275 471 281.716 471 290V337C471 345.284 464.284 352 456 352C447.716 352 441 345.284 441 337V332.04L397.664 385.037C387.942 396.926 370.811 399.553 357.974 391.123L296.473 350.74L255.607 391.607C249.749 397.464 240.251 397.464 234.393 391.607C228.536 385.749 228.536 376.251 234.393 370.393L275.26 329.527C285.316 319.471 301.051 317.857 312.939 325.663L374.44 366.046L424.358 305H404C395.716 305 389 298.284 389 290ZM367 553C367 559.075 362.075 564 356 564C349.925 564 345 559.075 345 553C345 546.925 349.925 542 356 542C362.075 542 367 546.925 367 553Z" fill="url(#paint0_linear_38_57)"/>
<defs>
<linearGradient id="paint0_linear_38_57" x1="170.545" y1="574.96" x2="675.721" y2="358.077" gradientUnits="userSpaceOnUse">
<stop stop-color="#56CCF2"/>
<stop offset="1" stop-color="#2F80ED"/>
</linearGradient>
</defs>
</svg>
