<svg width="712" height="712" viewBox="0 0 712 712" fill="none" xmlns="http://www.w3.org/2000/svg">
<path fill-rule="evenodd" clip-rule="evenodd" d="M315 494C413.859 494 494 413.859 494 315C494 216.141 413.859 136 315 136C216.141 136 136 216.141 136 315C136 413.859 216.141 494 315 494ZM315 524C353.19 524 388.987 513.757 419.794 495.869L446.893 522.968L514.331 590.405C514.964 591.039 515.828 591.851 516.932 592.689C519.706 594.793 529.544 601.783 542.85 604.624C557.009 607.648 575.044 605.831 590.938 589.938C606.831 574.044 608.648 556.008 605.624 541.85C602.783 528.544 595.793 518.706 593.69 515.932C592.851 514.828 592.039 513.964 591.405 513.33L523.968 445.893L496.6 418.525C514.036 388.005 524 352.666 524 315C524 199.572 430.428 106 315 106C199.572 106 106 199.572 106 315C106 430.428 199.572 524 315 524ZM457.5 491.148L445.006 478.654C457.828 468.455 469.424 456.781 479.537 443.889L492.148 456.5L457.5 491.148ZM513.362 477.713L478.713 512.361L535.362 569.01C537.137 570.306 542.543 573.882 549.114 575.286C555.258 576.598 562.314 576.136 569.725 568.725C577.136 561.313 577.598 554.258 576.286 548.114C574.883 541.543 571.306 536.137 570.01 534.362L513.362 477.713ZM373.102 392.681C356.907 404.813 336.793 412 315 412C293.207 412 273.093 404.813 256.898 392.681C262.796 366.024 286.57 346.087 315 346.087C343.43 346.087 367.204 366.024 373.102 392.681ZM396.253 368.001C387.037 348.113 370.734 332.179 350.586 323.44C358.964 314.632 364.107 302.716 364.107 289.6C364.107 262.479 342.121 240.493 315 240.493C287.879 240.493 265.893 262.479 265.893 289.6C265.893 302.716 271.036 314.632 279.414 323.44C259.266 332.179 242.963 348.113 233.747 368.001C223.789 352.766 218 334.559 218 315C218 261.428 261.428 218 315 218C368.572 218 412 261.428 412 315C412 334.559 406.211 352.766 396.253 368.001ZM404.505 405.099C427.662 382.093 442 350.221 442 315C442 244.86 385.14 188 315 188C244.86 188 188 244.86 188 315C188 350.221 202.338 382.093 225.495 405.099L225.494 405.268L225.494 405.385C225.493 405.454 225.493 405.524 225.493 405.593H225.995C248.912 428.111 280.334 442 315 442C349.666 442 381.088 428.111 404.005 405.593H404.507C404.507 405.496 404.507 405.399 404.506 405.303L404.505 405.099ZM315 308.707C325.552 308.707 334.107 300.152 334.107 289.6C334.107 279.048 325.552 270.493 315 270.493C304.448 270.493 295.893 279.048 295.893 289.6C295.893 300.152 304.448 308.707 315 308.707Z" fill="url(#paint0_linear_38_98)"/>
<defs>
<linearGradient id="paint0_linear_38_98" x1="174.296" y1="585.846" x2="680.274" y2="382.695" gradientUnits="userSpaceOnUse">
<stop stop-color="#56CCF2"/>
<stop offset="1" stop-color="#2F80ED"/>
</linearGradient>
</defs>
</svg>
