<svg width="512" height="512" viewBox="0 0 512 512" fill="none" xmlns="http://www.w3.org/2000/svg">
<path fill-rule="evenodd" clip-rule="evenodd" d="M212 393C310.859 393 391 312.859 391 214C391 115.141 310.859 35 212 35C113.141 35 33 115.141 33 214C33 312.859 113.141 393 212 393ZM212 423C250.19 423 285.987 412.757 316.794 394.869L343.893 421.968L411.331 489.405C411.964 490.039 412.828 490.851 413.932 491.689C416.706 493.793 426.544 500.783 439.85 503.624C454.009 506.648 472.044 504.831 487.938 488.938C503.831 473.044 505.648 455.008 502.624 440.85C499.783 427.544 492.793 417.706 490.69 414.932C489.851 413.828 489.039 412.964 488.405 412.33L420.968 344.893L393.6 317.525C411.036 287.005 421 251.666 421 214C421 98.5725 327.428 5 212 5C96.5725 5 3 98.5725 3 214C3 329.428 96.5725 423 212 423ZM354.5 390.148L342.006 377.654C354.828 367.455 366.424 355.781 376.537 342.889L389.148 355.5L354.5 390.148ZM410.362 376.713L375.713 411.361L432.362 468.01C434.137 469.306 439.543 472.882 446.114 474.286C452.258 475.598 459.314 475.136 466.725 467.725C474.136 460.313 474.598 453.258 473.286 447.114C471.883 440.543 468.306 435.137 467.01 433.362L410.362 376.713ZM270.102 291.681C253.907 303.813 233.793 311 212 311C190.207 311 170.093 303.813 153.898 291.681C159.796 265.024 183.57 245.087 212 245.087C240.43 245.087 264.204 265.024 270.102 291.681ZM293.253 267.001C284.037 247.113 267.734 231.179 247.586 222.44C255.964 213.632 261.107 201.716 261.107 188.6C261.107 161.479 239.121 139.493 212 139.493C184.879 139.493 162.893 161.479 162.893 188.6C162.893 201.716 168.036 213.632 176.414 222.44C156.266 231.179 139.963 247.113 130.747 267.001C120.789 251.766 115 233.559 115 214C115 160.428 158.428 117 212 117C265.572 117 309 160.428 309 214C309 233.559 303.211 251.766 293.253 267.001ZM301.505 304.099C324.662 281.093 339 249.221 339 214C339 143.86 282.14 87 212 87C141.86 87 85 143.86 85 214C85 249.221 99.3376 281.093 122.495 304.099L122.494 304.268L122.494 304.385C122.493 304.454 122.493 304.524 122.493 304.593H122.995C145.912 327.111 177.334 341 212 341C246.666 341 278.088 327.111 301.005 304.593H301.507C301.507 304.496 301.507 304.399 301.506 304.303L301.505 304.099ZM212 207.707C222.552 207.707 231.107 199.152 231.107 188.6C231.107 178.048 222.552 169.493 212 169.493C201.448 169.493 192.893 178.048 192.893 188.6C192.893 199.152 201.448 207.707 212 207.707Z" fill="url(#paint0_linear_38_98)"/>
<defs>
<linearGradient id="paint0_linear_38_98" x1="71.2964" y1="484.846" x2="577.274" y2="281.695" gradientUnits="userSpaceOnUse">
<stop stop-color="#56CCF2"/>
<stop offset="1" stop-color="#2F80ED"/>
</linearGradient>
</defs>
</svg>
