<svg width="512" height="512" viewBox="0 0 512 512" fill="none" xmlns="http://www.w3.org/2000/svg">
<path fill-rule="evenodd" clip-rule="evenodd" d="M45 36C28.4315 36 15 49.4315 15 66V166.5V447C15 463.569 28.4315 477 45 477H467C483.569 477 497 463.569 497 447V166.5V66C497 49.4315 483.569 36 467 36H45ZM45 66H467V151.5H45V66ZM45 181.5H467V447H45V181.5ZM297.5 95C289.216 95 282.5 101.716 282.5 110C282.5 118.284 289.216 125 297.5 125H420C428.284 125 435 118.284 435 110C435 101.716 428.284 95 420 95H297.5ZM172 246.5C172 238.216 165.284 231.5 157 231.5C148.716 231.5 142 238.216 142 246.5V334.5H157C142 334.5 142 334.509 142 334.519L142 334.538L142 334.582L142.001 334.682C142.002 334.755 142.003 334.84 142.005 334.936C142.009 335.13 142.015 335.371 142.027 335.656C142.051 336.226 142.094 336.975 142.174 337.88C142.333 339.684 142.639 342.135 143.233 345.023C144.411 350.748 146.785 358.509 151.642 366.378C161.943 383.069 181.741 397.5 216.25 397.5C250.759 397.5 270.557 383.069 280.858 366.378C285.715 358.509 288.089 350.748 289.267 345.023C289.861 342.135 290.167 339.684 290.326 337.88C290.406 336.975 290.449 336.226 290.473 335.656C290.478 335.524 290.483 335.402 290.486 335.289C290.49 335.158 290.493 335.04 290.495 334.936C290.497 334.84 290.498 334.755 290.499 334.682L290.5 334.582L290.5 334.538L290.5 334.519C290.5 334.509 290.5 334.5 275.5 334.5H290.5V246.5C290.5 238.216 283.784 231.5 275.5 231.5C267.216 231.5 260.5 238.216 260.5 246.5V334.376L260.498 334.422C260.493 334.556 260.478 334.837 260.442 335.245C260.37 336.066 260.214 337.365 259.882 338.977C259.208 342.252 257.879 346.491 255.329 350.622C250.818 357.931 240.991 367.5 216.25 367.5C191.509 367.5 181.682 357.931 177.171 350.622C174.621 346.491 173.292 342.252 172.618 338.977C172.286 337.365 172.13 336.066 172.058 335.245C172.022 334.837 172.007 334.556 172.002 334.422L172 334.376V246.5ZM367 246.5C367 238.216 360.284 231.5 352 231.5C343.716 231.5 337 238.216 337 246.5V382.5C337 390.784 343.716 397.5 352 397.5C360.284 397.5 367 390.784 367 382.5V246.5ZM77 124C85.2843 124 92 117.284 92 109C92 100.716 85.2843 94 77 94C68.7157 94 62 100.716 62 109C62 117.284 68.7157 124 77 124ZM147 109C147 117.284 140.284 124 132 124C123.716 124 117 117.284 117 109C117 100.716 123.716 94 132 94C140.284 94 147 100.716 147 109ZM187 124C195.284 124 202 117.284 202 109C202 100.716 195.284 94 187 94C178.716 94 172 100.716 172 109C172 117.284 178.716 124 187 124Z" fill="#D9D9D9"/>
<path fill-rule="evenodd" clip-rule="evenodd" d="M45 36C28.4315 36 15 49.4315 15 66V166.5V447C15 463.569 28.4315 477 45 477H467C483.569 477 497 463.569 497 447V166.5V66C497 49.4315 483.569 36 467 36H45ZM45 66H467V151.5H45V66ZM45 181.5H467V447H45V181.5ZM297.5 95C289.216 95 282.5 101.716 282.5 110C282.5 118.284 289.216 125 297.5 125H420C428.284 125 435 118.284 435 110C435 101.716 428.284 95 420 95H297.5ZM172 246.5C172 238.216 165.284 231.5 157 231.5C148.716 231.5 142 238.216 142 246.5V334.5H157C142 334.5 142 334.509 142 334.519L142 334.538L142 334.582L142.001 334.682C142.002 334.755 142.003 334.84 142.005 334.936C142.009 335.13 142.015 335.371 142.027 335.656C142.051 336.226 142.094 336.975 142.174 337.88C142.333 339.684 142.639 342.135 143.233 345.023C144.411 350.748 146.785 358.509 151.642 366.378C161.943 383.069 181.741 397.5 216.25 397.5C250.759 397.5 270.557 383.069 280.858 366.378C285.715 358.509 288.089 350.748 289.267 345.023C289.861 342.135 290.167 339.684 290.326 337.88C290.406 336.975 290.449 336.226 290.473 335.656C290.478 335.524 290.483 335.402 290.486 335.289C290.49 335.158 290.493 335.04 290.495 334.936C290.497 334.84 290.498 334.755 290.499 334.682L290.5 334.582L290.5 334.538L290.5 334.519C290.5 334.509 290.5 334.5 275.5 334.5H290.5V246.5C290.5 238.216 283.784 231.5 275.5 231.5C267.216 231.5 260.5 238.216 260.5 246.5V334.376L260.498 334.422C260.493 334.556 260.478 334.837 260.442 335.245C260.37 336.066 260.214 337.365 259.882 338.977C259.208 342.252 257.879 346.491 255.329 350.622C250.818 357.931 240.991 367.5 216.25 367.5C191.509 367.5 181.682 357.931 177.171 350.622C174.621 346.491 173.292 342.252 172.618 338.977C172.286 337.365 172.13 336.066 172.058 335.245C172.022 334.837 172.007 334.556 172.002 334.422L172 334.376V246.5ZM367 246.5C367 238.216 360.284 231.5 352 231.5C343.716 231.5 337 238.216 337 246.5V382.5C337 390.784 343.716 397.5 352 397.5C360.284 397.5 367 390.784 367 382.5V246.5ZM77 124C85.2843 124 92 117.284 92 109C92 100.716 85.2843 94 77 94C68.7157 94 62 100.716 62 109C62 117.284 68.7157 124 77 124ZM147 109C147 117.284 140.284 124 132 124C123.716 124 117 117.284 117 109C117 100.716 123.716 94 132 94C140.284 94 147 100.716 147 109ZM187 124C195.284 124 202 117.284 202 109C202 100.716 195.284 94 187 94C178.716 94 172 100.716 172 109C172 117.284 178.716 124 187 124Z" fill="url(#paint0_linear_38_41)"/>
<defs>
<linearGradient id="paint0_linear_38_41" x1="80.7273" y1="459.36" x2="555.169" y2="251.576" gradientUnits="userSpaceOnUse">
<stop stop-color="#56CCF2"/>
<stop offset="1" stop-color="#2F80ED"/>
</linearGradient>
</defs>
</svg>
