<svg width="712" height="712" viewBox="0 0 712 712" fill="none" xmlns="http://www.w3.org/2000/svg">
<path fill-rule="evenodd" clip-rule="evenodd" d="M145 136C128.431 136 115 149.431 115 166V266.5V547C115 563.569 128.431 577 145 577H567C583.569 577 597 563.569 597 547V266.5V166C597 149.431 583.569 136 567 136H145ZM145 166H567V251.5H145V166ZM145 281.5H567V547H145V281.5ZM397.5 195C389.216 195 382.5 201.716 382.5 210C382.5 218.284 389.216 225 397.5 225H520C528.284 225 535 218.284 535 210C535 201.716 528.284 195 520 195H397.5ZM272 346.5C272 338.216 265.284 331.5 257 331.5C248.716 331.5 242 338.216 242 346.5V434.5H257C242 434.5 242 434.509 242 434.519L242 434.538L242 434.582L242.001 434.682C242.002 434.755 242.003 434.84 242.005 434.936C242.009 435.13 242.015 435.371 242.027 435.656C242.051 436.226 242.094 436.975 242.174 437.88C242.333 439.684 242.639 442.135 243.233 445.023C244.411 450.748 246.785 458.509 251.642 466.378C261.943 483.069 281.741 497.5 316.25 497.5C350.759 497.5 370.557 483.069 380.858 466.378C385.715 458.509 388.089 450.748 389.267 445.023C389.861 442.135 390.167 439.684 390.326 437.88C390.406 436.975 390.449 436.226 390.473 435.656C390.478 435.524 390.483 435.402 390.486 435.289C390.49 435.158 390.493 435.04 390.495 434.936C390.497 434.84 390.498 434.755 390.499 434.682L390.5 434.582L390.5 434.538L390.5 434.519C390.5 434.509 390.5 434.5 375.5 434.5H390.5V346.5C390.5 338.216 383.784 331.5 375.5 331.5C367.216 331.5 360.5 338.216 360.5 346.5V434.376L360.498 434.422C360.493 434.556 360.478 434.837 360.442 435.245C360.37 436.066 360.214 437.365 359.882 438.977C359.208 442.252 357.879 446.491 355.329 450.622C350.818 457.931 340.991 467.5 316.25 467.5C291.509 467.5 281.682 457.931 277.171 450.622C274.621 446.491 273.292 442.252 272.618 438.977C272.286 437.365 272.13 436.066 272.058 435.245C272.022 434.837 272.007 434.556 272.002 434.422L272 434.376V346.5ZM467 346.5C467 338.216 460.284 331.5 452 331.5C443.716 331.5 437 338.216 437 346.5V482.5C437 490.784 443.716 497.5 452 497.5C460.284 497.5 467 490.784 467 482.5V346.5ZM177 224C185.284 224 192 217.284 192 209C192 200.716 185.284 194 177 194C168.716 194 162 200.716 162 209C162 217.284 168.716 224 177 224ZM247 209C247 217.284 240.284 224 232 224C223.716 224 217 217.284 217 209C217 200.716 223.716 194 232 194C240.284 194 247 200.716 247 209ZM287 224C295.284 224 302 217.284 302 209C302 200.716 295.284 194 287 194C278.716 194 272 200.716 272 209C272 217.284 278.716 224 287 224Z" fill="#D9D9D9"/>
<path fill-rule="evenodd" clip-rule="evenodd" d="M145 136C128.431 136 115 149.431 115 166V266.5V547C115 563.569 128.431 577 145 577H567C583.569 577 597 563.569 597 547V266.5V166C597 149.431 583.569 136 567 136H145ZM145 166H567V251.5H145V166ZM145 281.5H567V547H145V281.5ZM397.5 195C389.216 195 382.5 201.716 382.5 210C382.5 218.284 389.216 225 397.5 225H520C528.284 225 535 218.284 535 210C535 201.716 528.284 195 520 195H397.5ZM272 346.5C272 338.216 265.284 331.5 257 331.5C248.716 331.5 242 338.216 242 346.5V434.5H257C242 434.5 242 434.509 242 434.519L242 434.538L242 434.582L242.001 434.682C242.002 434.755 242.003 434.84 242.005 434.936C242.009 435.13 242.015 435.371 242.027 435.656C242.051 436.226 242.094 436.975 242.174 437.88C242.333 439.684 242.639 442.135 243.233 445.023C244.411 450.748 246.785 458.509 251.642 466.378C261.943 483.069 281.741 497.5 316.25 497.5C350.759 497.5 370.557 483.069 380.858 466.378C385.715 458.509 388.089 450.748 389.267 445.023C389.861 442.135 390.167 439.684 390.326 437.88C390.406 436.975 390.449 436.226 390.473 435.656C390.478 435.524 390.483 435.402 390.486 435.289C390.49 435.158 390.493 435.04 390.495 434.936C390.497 434.84 390.498 434.755 390.499 434.682L390.5 434.582L390.5 434.538L390.5 434.519C390.5 434.509 390.5 434.5 375.5 434.5H390.5V346.5C390.5 338.216 383.784 331.5 375.5 331.5C367.216 331.5 360.5 338.216 360.5 346.5V434.376L360.498 434.422C360.493 434.556 360.478 434.837 360.442 435.245C360.37 436.066 360.214 437.365 359.882 438.977C359.208 442.252 357.879 446.491 355.329 450.622C350.818 457.931 340.991 467.5 316.25 467.5C291.509 467.5 281.682 457.931 277.171 450.622C274.621 446.491 273.292 442.252 272.618 438.977C272.286 437.365 272.13 436.066 272.058 435.245C272.022 434.837 272.007 434.556 272.002 434.422L272 434.376V346.5ZM467 346.5C467 338.216 460.284 331.5 452 331.5C443.716 331.5 437 338.216 437 346.5V482.5C437 490.784 443.716 497.5 452 497.5C460.284 497.5 467 490.784 467 482.5V346.5ZM177 224C185.284 224 192 217.284 192 209C192 200.716 185.284 194 177 194C168.716 194 162 200.716 162 209C162 217.284 168.716 224 177 224ZM247 209C247 217.284 240.284 224 232 224C223.716 224 217 217.284 217 209C217 200.716 223.716 194 232 194C240.284 194 247 200.716 247 209ZM287 224C295.284 224 302 217.284 302 209C302 200.716 295.284 194 287 194C278.716 194 272 200.716 272 209C272 217.284 278.716 224 287 224Z" fill="url(#paint0_linear_38_41)"/>
<defs>
<linearGradient id="paint0_linear_38_41" x1="180.727" y1="559.36" x2="655.169" y2="351.576" gradientUnits="userSpaceOnUse">
<stop stop-color="#56CCF2"/>
<stop offset="1" stop-color="#2F80ED"/>
</linearGradient>
</defs>
</svg>
