<svg width="712" height="712" viewBox="0 0 712 712" fill="none" xmlns="http://www.w3.org/2000/svg">
<path fill-rule="evenodd" clip-rule="evenodd" d="M573 186C573 197.046 564.046 206 553 206C541.954 206 533 197.046 533 186C533 174.954 541.954 166 553 166C564.046 166 573 174.954 573 186ZM603 186C603 213.614 580.614 236 553 236C530.612 236 511.66 221.286 505.289 201H472.641V341.5H505.135C511.35 320.957 530.428 306 553 306C580.614 306 603 328.386 603 356C603 383.614 580.614 406 553 406C530.796 406 511.973 391.527 505.449 371.5H472.641V512H505.289C511.66 491.714 530.612 477 553 477C580.614 477 603 499.386 603 527C603 554.614 580.614 577 553 577C530.612 577 511.66 562.286 505.289 542H472.641C456.072 542 442.641 528.569 442.641 512V371.5H408.209C400.452 447.06 336.609 506 259 506C176.157 506 109 438.843 109 356C109 273.157 176.157 206 259 206C336.951 206 401.015 265.461 408.308 341.5H442.641V201C442.641 184.431 456.072 171 472.641 171H505.289C511.66 150.714 530.612 136 553 136C580.614 136 603 158.386 603 186ZM186.84 451.889C206.923 467.026 231.914 476 259 476C286.086 476 311.077 467.026 331.16 451.889C325.808 416.845 295.539 390 259 390C222.461 390 192.192 416.845 186.84 451.889ZM355.607 427.197C345.714 400.513 325.082 379.044 298.96 368.038C310.073 357.472 317 342.545 317 326C317 293.967 291.033 268 259 268C226.967 268 201 293.967 201 326C201 342.545 207.928 357.472 219.04 368.038C192.918 379.044 172.286 400.513 162.393 427.197C147.691 407.28 139 382.655 139 356C139 289.726 192.726 236 259 236C325.274 236 379 289.726 379 356C379 382.655 370.309 407.28 355.607 427.197ZM259 354C274.464 354 287 341.464 287 326C287 310.536 274.464 298 259 298C243.536 298 231 310.536 231 326C231 341.464 243.536 354 259 354ZM553 376C564.046 376 573 367.046 573 356C573 344.954 564.046 336 553 336C541.954 336 533 344.954 533 356C533 367.046 541.954 376 553 376ZM573 527C573 538.046 564.046 547 553 547C541.954 547 533 538.046 533 527C533 515.954 541.954 507 553 507C564.046 507 573 515.954 573 527Z" fill="black"/>
<path fill-rule="evenodd" clip-rule="evenodd" d="M573 186C573 197.046 564.046 206 553 206C541.954 206 533 197.046 533 186C533 174.954 541.954 166 553 166C564.046 166 573 174.954 573 186ZM603 186C603 213.614 580.614 236 553 236C530.612 236 511.66 221.286 505.289 201H472.641V341.5H505.135C511.35 320.957 530.428 306 553 306C580.614 306 603 328.386 603 356C603 383.614 580.614 406 553 406C530.796 406 511.973 391.527 505.449 371.5H472.641V512H505.289C511.66 491.714 530.612 477 553 477C580.614 477 603 499.386 603 527C603 554.614 580.614 577 553 577C530.612 577 511.66 562.286 505.289 542H472.641C456.072 542 442.641 528.569 442.641 512V371.5H408.209C400.452 447.06 336.609 506 259 506C176.157 506 109 438.843 109 356C109 273.157 176.157 206 259 206C336.951 206 401.015 265.461 408.308 341.5H442.641V201C442.641 184.431 456.072 171 472.641 171H505.289C511.66 150.714 530.612 136 553 136C580.614 136 603 158.386 603 186ZM186.84 451.889C206.923 467.026 231.914 476 259 476C286.086 476 311.077 467.026 331.16 451.889C325.808 416.845 295.539 390 259 390C222.461 390 192.192 416.845 186.84 451.889ZM355.607 427.197C345.714 400.513 325.082 379.044 298.96 368.038C310.073 357.472 317 342.545 317 326C317 293.967 291.033 268 259 268C226.967 268 201 293.967 201 326C201 342.545 207.928 357.472 219.04 368.038C192.918 379.044 172.286 400.513 162.393 427.197C147.691 407.28 139 382.655 139 356C139 289.726 192.726 236 259 236C325.274 236 379 289.726 379 356C379 382.655 370.309 407.28 355.607 427.197ZM259 354C274.464 354 287 341.464 287 326C287 310.536 274.464 298 259 298C243.536 298 231 310.536 231 326C231 341.464 243.536 354 259 354ZM553 376C564.046 376 573 367.046 573 356C573 344.954 564.046 336 553 336C541.954 336 533 344.954 533 356C533 367.046 541.954 376 553 376ZM573 527C573 538.046 564.046 547 553 547C541.954 547 533 538.046 533 527C533 515.954 541.954 507 553 507C564.046 507 573 515.954 573 527Z" fill="url(#paint0_linear_38_37)"/>
<defs>
<linearGradient id="paint0_linear_38_37" x1="176.364" y1="559.36" x2="658.704" y2="342.858" gradientUnits="userSpaceOnUse">
<stop stop-color="#56CCF2"/>
<stop offset="1" stop-color="#2F80ED"/>
</linearGradient>
</defs>
</svg>
