<svg width="512" height="512" viewBox="0 0 512 512" fill="none" xmlns="http://www.w3.org/2000/svg">
<path fill-rule="evenodd" clip-rule="evenodd" d="M473 86C473 97.0457 464.046 106 453 106C441.954 106 433 97.0457 433 86C433 74.9543 441.954 66 453 66C464.046 66 473 74.9543 473 86ZM503 86C503 113.614 480.614 136 453 136C430.612 136 411.66 121.286 405.289 101H372.641V241.5H405.135C411.35 220.957 430.428 206 453 206C480.614 206 503 228.386 503 256C503 283.614 480.614 306 453 306C430.796 306 411.973 291.527 405.449 271.5H372.641V412H405.289C411.66 391.714 430.612 377 453 377C480.614 377 503 399.386 503 427C503 454.614 480.614 477 453 477C430.612 477 411.66 462.286 405.289 442H372.641C356.072 442 342.641 428.569 342.641 412V271.5H308.209C300.452 347.06 236.609 406 159 406C76.1573 406 9 338.843 9 256C9 173.157 76.1573 106 159 106C236.951 106 301.015 165.461 308.308 241.5H342.641V101C342.641 84.4315 356.072 71 372.641 71H405.289C411.66 50.7145 430.612 36 453 36C480.614 36 503 58.3858 503 86ZM86.8402 351.889C106.923 367.026 131.914 376 159 376C186.086 376 211.077 367.026 231.16 351.889C225.808 316.845 195.539 290 159 290C122.461 290 92.1919 316.845 86.8402 351.889ZM255.607 327.197C245.714 300.513 225.082 279.044 198.96 268.038C210.073 257.472 217 242.545 217 226C217 193.967 191.033 168 159 168C126.967 168 101 193.967 101 226C101 242.545 107.928 257.472 119.04 268.038C92.9181 279.044 72.286 300.513 62.3931 327.197C47.6907 307.28 39 282.655 39 256C39 189.726 92.7258 136 159 136C225.274 136 279 189.726 279 256C279 282.655 270.309 307.28 255.607 327.197ZM159 254C174.464 254 187 241.464 187 226C187 210.536 174.464 198 159 198C143.536 198 131 210.536 131 226C131 241.464 143.536 254 159 254ZM453 276C464.046 276 473 267.046 473 256C473 244.954 464.046 236 453 236C441.954 236 433 244.954 433 256C433 267.046 441.954 276 453 276ZM473 427C473 438.046 464.046 447 453 447C441.954 447 433 438.046 433 427C433 415.954 441.954 407 453 407C464.046 407 473 415.954 473 427Z" fill="black"/>
<path fill-rule="evenodd" clip-rule="evenodd" d="M473 86C473 97.0457 464.046 106 453 106C441.954 106 433 97.0457 433 86C433 74.9543 441.954 66 453 66C464.046 66 473 74.9543 473 86ZM503 86C503 113.614 480.614 136 453 136C430.612 136 411.66 121.286 405.289 101H372.641V241.5H405.135C411.35 220.957 430.428 206 453 206C480.614 206 503 228.386 503 256C503 283.614 480.614 306 453 306C430.796 306 411.973 291.527 405.449 271.5H372.641V412H405.289C411.66 391.714 430.612 377 453 377C480.614 377 503 399.386 503 427C503 454.614 480.614 477 453 477C430.612 477 411.66 462.286 405.289 442H372.641C356.072 442 342.641 428.569 342.641 412V271.5H308.209C300.452 347.06 236.609 406 159 406C76.1573 406 9 338.843 9 256C9 173.157 76.1573 106 159 106C236.951 106 301.015 165.461 308.308 241.5H342.641V101C342.641 84.4315 356.072 71 372.641 71H405.289C411.66 50.7145 430.612 36 453 36C480.614 36 503 58.3858 503 86ZM86.8402 351.889C106.923 367.026 131.914 376 159 376C186.086 376 211.077 367.026 231.16 351.889C225.808 316.845 195.539 290 159 290C122.461 290 92.1919 316.845 86.8402 351.889ZM255.607 327.197C245.714 300.513 225.082 279.044 198.96 268.038C210.073 257.472 217 242.545 217 226C217 193.967 191.033 168 159 168C126.967 168 101 193.967 101 226C101 242.545 107.928 257.472 119.04 268.038C92.9181 279.044 72.286 300.513 62.3931 327.197C47.6907 307.28 39 282.655 39 256C39 189.726 92.7258 136 159 136C225.274 136 279 189.726 279 256C279 282.655 270.309 307.28 255.607 327.197ZM159 254C174.464 254 187 241.464 187 226C187 210.536 174.464 198 159 198C143.536 198 131 210.536 131 226C131 241.464 143.536 254 159 254ZM453 276C464.046 276 473 267.046 473 256C473 244.954 464.046 236 453 236C441.954 236 433 244.954 433 256C433 267.046 441.954 276 453 276ZM473 427C473 438.046 464.046 447 453 447C441.954 447 433 438.046 433 427C433 415.954 441.954 407 453 407C464.046 407 473 415.954 473 427Z" fill="url(#paint0_linear_38_37)"/>
<defs>
<linearGradient id="paint0_linear_38_37" x1="76.3636" y1="459.36" x2="558.704" y2="242.858" gradientUnits="userSpaceOnUse">
<stop stop-color="#56CCF2"/>
<stop offset="1" stop-color="#2F80ED"/>
</linearGradient>
</defs>
</svg>
