<svg width="712" height="712" viewBox="0 0 712 712" fill="none" xmlns="http://www.w3.org/2000/svg">
<path fill-rule="evenodd" clip-rule="evenodd" d="M133 120C116.431 120 103 133.431 103 150V496V560C103 576.569 116.431 590 133 590H453C469.569 590 483 576.569 483 560V496V150C483 133.431 469.569 120 453 120H133ZM133 150L453 150V481H133V150ZM133 511H453V560H133V511ZM240.5 167.5C232.216 167.5 225.5 174.216 225.5 182.5C225.5 190.784 232.216 197.5 240.5 197.5H355C363.284 197.5 370 190.784 370 182.5C370 174.216 363.284 167.5 355 167.5H240.5ZM411.107 255.107C416.964 249.249 416.964 239.751 411.107 233.893C405.249 228.036 395.751 228.036 389.893 233.893L184.393 439.393C178.536 445.251 178.536 454.749 184.393 460.607C190.251 466.464 199.749 466.464 205.607 460.607L411.107 255.107ZM312.107 264.107C317.964 258.249 317.964 248.751 312.107 242.893C306.249 237.036 296.751 237.036 290.893 242.893L184.393 349.393C178.536 355.251 178.536 364.749 184.393 370.607C190.251 376.464 199.749 376.464 205.607 370.607L312.107 264.107ZM263 521C254.716 521 248 527.716 248 536C248 544.284 254.716 551 263 551H326C334.284 551 341 544.284 341 536C341 527.716 334.284 521 326 521H263ZM531 175.095L531.002 175.044C531.005 174.926 531.015 174.684 531.04 174.337C531.089 173.637 531.195 172.54 531.418 171.186C531.876 168.405 532.763 164.931 534.387 161.641C535.985 158.405 538.136 155.654 541.057 153.682C543.875 151.78 548.289 150 555.5 150C562.711 150 567.125 151.78 569.943 153.682C572.864 155.654 575.015 158.405 576.613 161.641C578.237 164.931 579.124 168.405 579.582 171.186C579.805 172.54 579.911 173.637 579.96 174.337C579.985 174.684 579.995 174.926 579.998 175.044L580 175.095V184.5H531V175.095ZM610 174.985C610 174.993 610 175 595 175H610V199.5V483V485.193L609.372 487.295L584.562 570.312C576.062 598.755 535.835 598.896 527.135 570.514L501.659 487.396L501 485.247V483V199.5V175H516C501 175 501 174.993 501 174.985L501 174.969L501 174.934L501.001 174.853C501.001 174.818 501.001 174.779 501.002 174.737L501.003 174.646C501.006 174.489 501.01 174.291 501.018 174.057C501.033 173.59 501.062 172.972 501.114 172.226C501.219 170.738 501.422 168.71 501.816 166.314C502.593 161.595 504.175 155.069 507.488 148.359C510.828 141.595 516.082 134.346 524.271 128.818C532.563 123.22 542.961 120 555.5 120C568.039 120 578.437 123.22 586.729 128.818C594.918 134.346 600.172 141.595 603.512 148.359C606.825 155.069 608.407 161.595 609.184 166.314C609.578 168.71 609.781 170.738 609.886 172.226C609.938 172.972 609.967 173.59 609.982 174.057C609.99 174.291 609.994 174.489 609.997 174.646C609.998 174.725 609.999 174.794 609.999 174.853L610 174.934L610 174.969L610 174.985ZM531 468V214.5H580V468H531ZM536.286 498H574.862L555.818 561.722L536.286 498Z" fill="url(#paint0_linear_38_69)"/>
<defs>
<linearGradient id="paint0_linear_38_69" x1="172.136" y1="572.853" x2="673.851" y2="356.781" gradientUnits="userSpaceOnUse">
<stop stop-color="#56CCF2"/>
<stop offset="1" stop-color="#2F80ED"/>
</linearGradient>
</defs>
</svg>
