<svg width="512" height="512" viewBox="0 0 512 512" fill="none" xmlns="http://www.w3.org/2000/svg">
<path fill-rule="evenodd" clip-rule="evenodd" d="M32 23C15.4315 23 2 36.4314 2 53V399V463C2 479.569 15.4315 493 32 493H352C368.569 493 382 479.569 382 463V399V53C382 36.4314 368.569 23 352 23H32ZM32 53L352 53V384H32V53ZM32 414H352V463H32V414ZM139.5 70.5C131.216 70.5 124.5 77.2157 124.5 85.5C124.5 93.7843 131.216 100.5 139.5 100.5H254C262.284 100.5 269 93.7843 269 85.5C269 77.2157 262.284 70.5 254 70.5H139.5ZM310.107 158.107C315.964 152.249 315.964 142.751 310.107 136.893C304.249 131.036 294.751 131.036 288.893 136.893L83.3934 342.393C77.5355 348.251 77.5355 357.749 83.3934 363.607C89.2513 369.464 98.7487 369.464 104.607 363.607L310.107 158.107ZM211.107 167.107C216.964 161.249 216.964 151.751 211.107 145.893C205.249 140.036 195.751 140.036 189.893 145.893L83.3934 252.393C77.5355 258.251 77.5355 267.749 83.3934 273.607C89.2513 279.464 98.7487 279.464 104.607 273.607L211.107 167.107ZM162 424C153.716 424 147 430.716 147 439C147 447.284 153.716 454 162 454H225C233.284 454 240 447.284 240 439C240 430.716 233.284 424 225 424H162ZM430 78.0949L430.002 78.0443C430.005 77.926 430.015 77.6841 430.04 77.3367C430.089 76.6367 430.195 75.5404 430.418 74.186C430.876 71.4054 431.763 67.9309 433.387 64.6409C434.985 61.4054 437.136 58.6539 440.057 56.6821C442.875 54.78 447.289 53 454.5 53C461.711 53 466.125 54.78 468.943 56.6821C471.864 58.6539 474.015 61.4054 475.613 64.6409C477.237 67.9309 478.124 71.4054 478.582 74.186C478.805 75.5404 478.911 76.6367 478.96 77.3367C478.985 77.6841 478.995 77.926 478.998 78.0443L479 78.095V87.5H430V78.0949ZM509 77.9851C509 77.9926 509 78 494 78H509V102.5V386V388.193L508.372 390.295L483.562 473.312C475.062 501.755 434.835 501.896 426.135 473.514L400.659 390.396L400 388.247V386V102.5V78H415C400 78 400 77.9926 400 77.9851L400 77.9691L400 77.9344L400.001 77.8535C400.001 77.8181 400.001 77.7792 400.002 77.7367L400.003 77.6464C400.006 77.4886 400.01 77.2914 400.018 77.0573C400.033 76.5896 400.062 75.9722 400.114 75.2258C400.219 73.7383 400.422 71.7096 400.816 69.314C401.593 64.5946 403.175 58.0691 406.488 51.3591C409.828 44.5946 415.082 37.3461 423.271 31.8179C431.563 26.22 441.961 23 454.5 23C467.039 23 477.437 26.22 485.729 31.8179C493.918 37.3461 499.172 44.5946 502.512 51.3591C505.825 58.0691 507.407 64.5946 508.184 69.314C508.578 71.7096 508.781 73.7383 508.886 75.2258C508.938 75.9722 508.967 76.5896 508.982 77.0573C508.99 77.2914 508.994 77.4886 508.997 77.6464C508.998 77.7253 508.999 77.7944 508.999 77.8535L509 77.9344L509 77.9691L509 77.9851ZM430 371V117.5H479V371H430ZM435.286 401H473.862L454.818 464.722L435.286 401Z" fill="url(#paint0_linear_38_69)"/>
<defs>
<linearGradient id="paint0_linear_38_69" x1="71.1364" y1="475.853" x2="572.851" y2="259.781" gradientUnits="userSpaceOnUse">
<stop stop-color="#56CCF2"/>
<stop offset="1" stop-color="#2F80ED"/>
</linearGradient>
</defs>
</svg>
