<svg width="512" height="512" viewBox="0 0 512 512" fill="none" xmlns="http://www.w3.org/2000/svg">
<g clip-path="url(#clip0_41_165)">
<path d="M305.951 413.028C392.161 413.028 462.049 343.21 462.049 257C462.049 170.79 392.162 100.902 305.951 100.902C290.358 100.902 275.298 103.189 261.09 107.445C256.069 108.949 255.484 115.676 259.748 118.723C274.977 129.604 287.649 143.691 296.719 159.964C297.943 162.159 300.306 163.475 302.818 163.393C303.858 163.359 304.903 163.341 305.951 163.341C357.677 163.341 399.61 205.274 399.61 257C399.61 306.628 361.011 347.24 312.196 350.454C308.755 350.68 305.951 347.863 305.951 344.415V225.78C305.951 156.812 248.644 100.902 177.951 100.902C107.259 100.902 49.9512 156.812 49.9512 225.78V406.854C49.9512 410.302 52.7467 413.097 56.1951 413.097H106.146C109.595 413.097 112.39 410.302 112.39 406.854V356.902C112.39 353.454 115.186 350.658 118.634 350.658H227.902C231.351 350.658 234.146 347.863 234.146 344.415V294.463C234.146 291.015 231.351 288.219 227.902 288.219H118.634C115.186 288.219 112.39 285.424 112.39 281.975V225.78C114.02 191.022 142.789 163.341 177.951 163.341C213.113 163.341 241.883 191.022 243.512 225.78V350.658C245.094 384.407 272.193 411.482 305.951 413.028Z" fill="url(#paint0_linear_41_165)"/>
</g>
<defs>
<linearGradient id="paint0_linear_41_165" x1="106.146" y1="400.61" x2="483.902" y2="200.805" gradientUnits="userSpaceOnUse">
<stop stop-color="#56CCF2"/>
<stop offset="1" stop-color="#2F80ED"/>
</linearGradient>
<clipPath id="clip0_41_165">
<rect width="512" height="512" fill="white"/>
</clipPath>
</defs>
</svg>
