<svg width="82" height="82" viewBox="0 0 82 82" fill="none" xmlns="http://www.w3.org/2000/svg">
<path d="M49 65.9888C62.8071 65.9888 74 54.8071 74 41C74 27.1929 62.8071 16 49 16C46.5026 16 44.0908 16.3662 41.8152 17.0478C41.0111 17.2887 40.9174 18.366 41.6003 18.854C44.0393 20.5968 46.0687 22.8528 47.5215 25.4591C47.7174 25.8106 48.096 26.0215 48.4982 26.0082C48.6648 26.0028 48.8321 26 49 26C57.2843 26 64 32.7157 64 41C64 48.9482 57.8181 55.4525 50.0002 55.9672C49.4491 56.0035 49 55.5523 49 55V36C49 24.9543 39.8218 16 28.5 16C17.1782 16 8 24.9543 8 36V65C8 65.5523 8.44772 66 9 66H17C17.5523 66 18 65.5523 18 65V57C18 56.4477 18.4477 56 19 56H36.5C37.0523 56 37.5 55.5523 37.5 55V47C37.5 46.4477 37.0523 46 36.5 46H19C18.4477 46 18 45.5523 18 45V36C18.261 30.4332 22.8686 26 28.5 26C34.1314 26 38.739 30.4332 39 36V56C39.2534 61.405 43.5934 65.7414 49 65.9888Z" fill="url(#paint0_linear_6_4)"/>
<defs>
<linearGradient id="paint0_linear_6_4" x1="17" y1="64" x2="77.5" y2="32" gradientUnits="userSpaceOnUse">
<stop stop-color="#56CCF2"/>
<stop offset="1" stop-color="#2F80ED"/>
</linearGradient>
</defs>
</svg>
